<svg width="20" height="21" viewBox="0 0 20 21" fill="none" xmlns="http://www.w3.org/2000/svg">
<path d="M10.3528 1.66893e-06C13.3108 1.66893e-06 15.6502 0.744335 17.3708 2.233C19.0915 3.70234 19.9518 5.80967 19.9518 8.555H13.8328C13.8328 7.395 13.5235 6.47667 12.9048 5.8C12.3055 5.12334 11.4452 4.785 10.3238 4.785C9.02849 4.785 8.07149 5.191 7.45282 6.003C6.85349 6.815 6.55383 7.946 6.55383 9.396V11.252C6.55383 12.6827 6.85349 13.8137 7.45282 14.645C8.07149 15.457 9.00916 15.863 10.2658 15.863C11.5032 15.863 12.4408 15.544 13.0788 14.906C13.7168 14.268 14.0358 13.369 14.0358 12.209H19.9518C19.9518 14.935 19.1108 17.023 17.4288 18.473C15.7662 19.923 13.4075 20.648 10.3528 20.648C6.95016 20.648 4.36916 19.778 2.60982 18.038C0.869824 16.298 -0.000175729 13.7267 -0.000175729 10.324C-0.000175729 6.92134 0.869824 4.35 2.60982 2.61C4.36916 0.870002 6.95016 1.66893e-06 10.3528 1.66893e-06Z" fill="#004813"/>
</svg>
